<svg height="464pt" viewBox="-4 0 464 464" width="464pt" xmlns="http://www.w3.org/2000/svg"><path d="m332 164-140 140-104-104 180-180zm0 0" fill="#f6bf9b"/><path d="m88.003906 200 112-112 104 104-112 112zm0 0" fill="#abbac2"/><path d="m16.34375 272 192 160h136v16c0 8.835938-7.164062 16-16 16h-136l-186.632812-156.800781c-3.433594-2.882813-5.5-7.078125-5.695313-11.558594s1.5-8.835937 4.671875-12.007813zm0 0" fill="#abbac2"/><path d="m16.34375 272 96-96 24 24c0 39.765625 32.234375 72 72 72h20l20 80 76.3125 31.792969c11.925781 4.96875 19.691406 16.625 19.6875 29.542969v18.664062h-136zm0 0" fill="#0093ba"/><path d="m176.34375 312h62l-4-16h-58zm0 0" fill="#a0deeb"/><path d="m184.34375 344h62l-4-16h-58zm0 0" fill="#a0deeb"/><path d="m62.28125 226.0625-45.9375 45.9375 52.847656 44.039062c12.3125-29.355468 9.742188-62.84375-6.910156-89.976562zm0 0" fill="#057fa8"/><path d="m456 144-160 160-104-104 200-200zm0 0" fill="#f6bf9b"/><path d="m192.007812 199.996094 112-112 104 104-112 112zm0 0" fill="#ccdde6"/><path d="m120.34375 272 192 160h136v16c0 8.835938-7.164062 16-16 16h-136l-186.632812-156.800781c-3.433594-2.882813-5.5-7.078125-5.695313-11.558594s1.5-8.835937 4.671875-12.007813zm0 0" fill="#ccdde6"/><path d="m120.34375 272 96-96 24 24c0 39.765625 32.234375 72 72 72h20l20 80 76.3125 31.792969c11.925781 4.96875 19.691406 16.625 19.6875 29.542969v18.664062h-136zm0 0" fill="#0093ba"/><path d="m280.34375 312h62l-4-16h-58zm0 0" fill="#a0deeb"/><path d="m288.34375 344h62l-4-16h-58zm0 0" fill="#a0deeb"/><path d="m166.28125 226.0625-45.9375 45.9375 52.847656 44.039062c12.3125-29.355468 9.742188-62.84375-6.910156-89.976562zm0 0" fill="#057fa8"/><g fill="#ccdde6"><path d="m86.5 146.34375 123.839844-123.839844 11.3125 11.3125-123.839844 123.839844zm0 0"/><path d="m62.496094 170.347656 11.839844-11.839844 11.3125 11.3125-11.839844 11.839844zm0 0"/></g></svg>